<svg id="Capa_1" data-name="Capa 1" xmlns="http://www.w3.org/2000/svg" viewBox="0 0 607.4 418.14"><defs><style>.cls-1{fill:#00796b;}</style></defs><path class="cls-1" d="M57.34,412.26Q54.52,407,51.1,399.17t-7.05-16.39q-3.63-8.52-7.59-16.72a119.13,119.13,0,0,0-8-14.23A8.6,8.6,0,0,0,24,350.35a51.6,51.6,0,0,0-5.91-.2c-2.06.05-4.1,0-6.11-.13a12.74,12.74,0,0,1-5.24-1.41,7.4,7.4,0,0,1-3.29-3.76c-.72-1.7-.85-4.17-.4-7.39H25.65a121.46,121.46,0,0,1,2.28-14.91,85,85,0,0,1,4.37-14.1A69.5,69.5,0,0,1,38.94,296a41.48,41.48,0,0,1,9.4-9.93A44.15,44.15,0,0,1,61,279.45,50.72,50.72,0,0,1,77.35,277a14.81,14.81,0,0,1,6.45,1.54,21.21,21.21,0,0,1,9.87,9.87,14.81,14.81,0,0,1,1.54,6.45,10.06,10.06,0,0,1-4.56-1,33.08,33.08,0,0,1-3.9-2.28,42.12,42.12,0,0,0-4-2.42A10.13,10.13,0,0,0,77.89,288a35.12,35.12,0,0,0-15,3.22,40,40,0,0,0-12.09,8.6,39.56,39.56,0,0,0-8.12,12.49,38.64,38.64,0,0,0-3,15c0,.36,0,1,.07,1.94s.06,1.95.06,3,0,2.1.07,3.09.07,1.65.07,2a62.92,62.92,0,0,0,11.15,2.42q6.16.8,12.42,1t12.08-.06c3.9-.18,7.37-.41,10.41-.67l1.48,1.47a4.7,4.7,0,0,1,1.21,1.61.79.79,0,0,0,.13.54l.27.81a4.93,4.93,0,0,1-3,4.43,23.72,23.72,0,0,1-7.52,2.35,92.45,92.45,0,0,1-10.14,1c-3.72.18-7.3.33-10.75.47s-6.53.31-9.26.53a14.67,14.67,0,0,0-5.71,1.28,51.41,51.41,0,0,0,6.24,15.58q4.5,7.51,9.2,15a148.14,148.14,0,0,1,8.33,15.17,36.31,36.31,0,0,1,3.62,15.72l-2.48.06a25.17,25.17,0,0,1-4.1-.2,14.38,14.38,0,0,1-4.09-1.14A3.42,3.42,0,0,1,57.34,412.26Z"/><path class="cls-1" d="M97.5,372.51A32,32,0,0,1,101.39,357a40.9,40.9,0,0,1,10.27-12.36A50.61,50.61,0,0,1,126,336.52a46.33,46.33,0,0,1,16.18-2.95,12.36,12.36,0,0,1,8.13,2.95,26.18,26.18,0,0,1,6,7.18,38.07,38.07,0,0,1,3.69,8.93,32,32,0,0,1,1.27,8.2,31.45,31.45,0,0,1-3.62,14.57,45.94,45.94,0,0,1-9.4,12.49,48.59,48.59,0,0,1-13,8.79,34.23,34.23,0,0,1-14.5,3.36,24.11,24.11,0,0,1-10.88-2.22,19.24,19.24,0,0,1-7.12-5.9,25.32,25.32,0,0,1-4-8.73A43.41,43.41,0,0,1,97.5,372.51Zm11.41,1.34a27.53,27.53,0,0,0,.6,6.11,10.84,10.84,0,0,0,2.15,4.5,9.81,9.81,0,0,0,4.1,2.89,17.27,17.27,0,0,0,6.31,1A20.32,20.32,0,0,0,132,385.6a36.94,36.94,0,0,0,15.31-16.31,23.17,23.17,0,0,0,2.42-9.94,30.2,30.2,0,0,0-.41-4.7A19.45,19.45,0,0,0,148,350a9.91,9.91,0,0,0-2.69-3.63,6.63,6.63,0,0,0-4.43-1.47,13.35,13.35,0,0,0-5.71,1.61,48,48,0,0,0-6.84,4.16,69.1,69.1,0,0,0-7,5.77q-3.42,3.23-6.24,6.45a38.28,38.28,0,0,0-4.5,6.18A10.52,10.52,0,0,0,108.91,373.85Z"/><path class="cls-1" d="M166.52,372.51a32,32,0,0,1,3.9-15.51,40.75,40.75,0,0,1,10.27-12.36,50.48,50.48,0,0,1,14.37-8.12,46.29,46.29,0,0,1,16.18-2.95,12.39,12.39,0,0,1,8.13,2.95,26,26,0,0,1,6,7.18,38.07,38.07,0,0,1,3.69,8.93,32,32,0,0,1,1.28,8.2,31.46,31.46,0,0,1-3.63,14.57,45.74,45.74,0,0,1-9.4,12.49,48.7,48.7,0,0,1-13,8.79A34.27,34.27,0,0,1,189.75,400a24.09,24.09,0,0,1-10.87-2.22,19.16,19.16,0,0,1-7.12-5.9,25.32,25.32,0,0,1-4-8.73A43.41,43.41,0,0,1,166.52,372.51Zm11.42,1.34a27.53,27.53,0,0,0,.6,6.11,10.71,10.71,0,0,0,2.15,4.5,9.75,9.75,0,0,0,4.1,2.89,17.27,17.27,0,0,0,6.31,1A20.34,20.34,0,0,0,201,385.6a37,37,0,0,0,15.3-16.31,23,23,0,0,0,2.42-9.94,30.11,30.11,0,0,0-.4-4.7A19.45,19.45,0,0,0,217,350a10,10,0,0,0-2.69-3.63,6.63,6.63,0,0,0-4.43-1.47,13.32,13.32,0,0,0-5.71,1.61,48.09,48.09,0,0,0-6.85,4.16,69,69,0,0,0-7,5.77q-3.42,3.23-6.25,6.45a37.58,37.58,0,0,0-4.49,6.18A10.52,10.52,0,0,0,177.94,373.85Z"/><path class="cls-1" d="M232.59,383.92a25,25,0,0,1,3.9-13.83,42.28,42.28,0,0,1,9.67-10.54,65.42,65.42,0,0,1,12.49-7.65q6.71-3.16,12.49-5.24c3.84-1.39,7.07-2.51,9.66-3.36s3.9-1.54,3.9-2.08a89.5,89.5,0,0,0-.47-9.2c-.32-3-.65-6-1-9.06s-.69-6.07-1-9.07a86.75,86.75,0,0,1-.47-8.93v-8.73q5.5-2,7.86.4t.74,8.33q.54,3,1.48,9.27t2.08,14.23q1.14,7.94,2.42,16.65t2.41,16.72q1.14,8,1.95,14.24t1.21,9.33a25,25,0,0,1,.27,2.62c.09,1.3.15,2.69.2,4.16s.09,2.85.13,4.1.07,2.15.07,2.69a38,38,0,0,1-6.92-.41,2.87,2.87,0,0,1-2.28-1.61,10.12,10.12,0,0,1-.47-3.49,21.64,21.64,0,0,0-1.34-6.31,81,81,0,0,1-9.4,6.44,51.66,51.66,0,0,1-8.87,4.1,45.17,45.17,0,0,1-8.93,2.15,72.72,72.72,0,0,1-9.6.6,44.37,44.37,0,0,1-8.26-.74,20.76,20.76,0,0,1-7.05-2.61,14.41,14.41,0,0,1-5-5.11A15.81,15.81,0,0,1,232.59,383.92Zm11.69-2.82a6,6,0,0,0,.94,3.5,8.49,8.49,0,0,0,2.41,2.28,9.31,9.31,0,0,0,3.16,1.28,17.07,17.07,0,0,0,3.29.33,32.18,32.18,0,0,0,10.14-1.81,38.19,38.19,0,0,0,10.07-5.1,29.94,29.94,0,0,0,7.66-7.86,17.68,17.68,0,0,0,3-9.94c0-2.77-.5-4.7-1.48-5.77s-2.87-1.62-5.64-1.62a30.71,30.71,0,0,0-10,2,54.19,54.19,0,0,0-11,5.37,36.41,36.41,0,0,0-8.93,7.86A14.9,14.9,0,0,0,244.28,381.1Z"/><path class="cls-1" d="M307.53,383.92a25,25,0,0,1,3.89-13.83,42.47,42.47,0,0,1,9.67-10.54,65.42,65.42,0,0,1,12.49-7.65q6.72-3.16,12.49-5.24t9.67-3.36c2.59-.85,3.89-1.54,3.89-2.08a86.77,86.77,0,0,0-.47-9.2c-.31-3-.65-6-1-9.06s-.7-6.07-1-9.07a84,84,0,0,1-.47-8.93v-8.73q5.51-2,7.86.4t.73,8.33q.54,3,1.48,9.27t2.08,14.23q1.14,7.94,2.42,16.65t2.42,16.72q1.14,8,1.94,14.24t1.21,9.33a25,25,0,0,1,.27,2.62c.09,1.3.16,2.69.2,4.16s.09,2.85.14,4.1.06,2.15.06,2.69a37.88,37.88,0,0,1-6.91-.41,2.89,2.89,0,0,1-2.29-1.61,10.16,10.16,0,0,1-.46-3.49,21.39,21.39,0,0,0-1.35-6.31,79.34,79.34,0,0,1-9.4,6.44,51.57,51.57,0,0,1-8.86,4.1,45.34,45.34,0,0,1-8.93,2.15,72.72,72.72,0,0,1-9.6.6,44.3,44.3,0,0,1-8.26-.74,20.76,20.76,0,0,1-7.05-2.61,14.33,14.33,0,0,1-5-5.11A15.71,15.71,0,0,1,307.53,383.92Zm11.68-2.82a6,6,0,0,0,.94,3.5,8.53,8.53,0,0,0,2.42,2.28,9.18,9.18,0,0,0,3.15,1.28,17.07,17.07,0,0,0,3.29.33,32.08,32.08,0,0,0,10.14-1.81,38.25,38.25,0,0,0,10.08-5.1,29.9,29.9,0,0,0,7.65-7.86,17.68,17.68,0,0,0,3-9.94c0-2.77-.49-4.7-1.48-5.77s-2.86-1.62-5.64-1.62a30.75,30.75,0,0,0-10,2,53.86,53.86,0,0,0-11,5.37,36,36,0,0,0-8.93,7.86A14.86,14.86,0,0,0,319.21,381.1Z"/><path class="cls-1" d="M385.42,362.44a62,62,0,0,1,1.74-14.51,40.5,40.5,0,0,1,5.58-13,30.2,30.2,0,0,1,9.93-9.4,28.58,28.58,0,0,1,14.84-3.63,19.88,19.88,0,0,1,8.73,1.82,19.09,19.09,0,0,1,6.31,4.76,19.72,19.72,0,0,1,3.83,6.92,26.77,26.77,0,0,1,1.28,8.26,30,30,0,0,1-3.16,13.29A38.07,38.07,0,0,1,426,368.28a35.73,35.73,0,0,1-12.15,7.39,26.2,26.2,0,0,1-14,1.14,8.59,8.59,0,0,0,2.62,6.24,16.39,16.39,0,0,0,6,3.56,30.3,30.3,0,0,0,7.25,1.55q3.75.33,6.71.33a29.41,29.41,0,0,0,5.78-.54c1.79-.35,3.58-.76,5.37-1.2s3.6-.85,5.44-1.21a30.25,30.25,0,0,1,5.84-.54c.8,0,1.61.05,2.42.13a8,8,0,0,1,2.28.61,3.93,3.93,0,0,1,1.74,1.47,4.41,4.41,0,0,1,.68,2.49,5.44,5.44,0,0,1-1.88,4.23,17.14,17.14,0,0,1-4.77,2.89,29.74,29.74,0,0,1-6.38,1.81c-2.33.4-4.59.72-6.78.94s-4.21.36-6.05.4-3.2.07-4.09.07a41.17,41.17,0,0,1-15.44-2.75,31.82,31.82,0,0,1-18.74-19.48A45.05,45.05,0,0,1,385.42,362.44Zm14.23-8.73c0,3.13.43,5.42,1.28,6.85s2.93,2.15,6.24,2.15a19.16,19.16,0,0,0,6.85-1.28,21.14,21.14,0,0,0,6.11-3.56,17.35,17.35,0,0,0,4.37-5.37,14.35,14.35,0,0,0,1.61-6.71,27.56,27.56,0,0,0-.34-4.17,10.91,10.91,0,0,0-1.41-4,9.16,9.16,0,0,0-2.75-3,7.64,7.64,0,0,0-4.37-1.14,14.87,14.87,0,0,0-7.31,1.81,18.13,18.13,0,0,0-5.58,4.7,21.48,21.48,0,0,0-3.49,6.44A22.15,22.15,0,0,0,399.65,353.71Z"/><path class="cls-1" d="M457.67,359.35a31.59,31.59,0,0,1,2.48-11.82,42.33,42.33,0,0,1,6.65-11.21,38.75,38.75,0,0,1,9.6-8.4,21.58,21.58,0,0,1,11.48-3.35,18.87,18.87,0,0,1,6.18,1.07,18.39,18.39,0,0,1,5.57,3.09,16.09,16.09,0,0,1,4,4.84,12.91,12.91,0,0,1,1.55,6.31,16.34,16.34,0,0,1-4.37-.54,37.4,37.4,0,0,1-3.83-1.28c-1.25-.49-2.48-.91-3.69-1.27A15.54,15.54,0,0,0,480.43,339a19.9,19.9,0,0,0-5.44,6.92,31.46,31.46,0,0,0-2.75,8.93,57.63,57.63,0,0,0-.74,8.93c0,.45,0,1.3.07,2.55s.08,2.58.13,4,.09,2.71.13,4a19.58,19.58,0,0,0,.21,2.55,23.86,23.86,0,0,0,2.88,5,10.3,10.3,0,0,0,3,2.62,9.41,9.41,0,0,0,3.49,1.07,43.43,43.43,0,0,0,4.43.2A16.15,16.15,0,0,0,492,384.6a29.92,29.92,0,0,0,4.9-2.56,34.22,34.22,0,0,0,4.3-3.29,44.12,44.12,0,0,1,4.23-3.35,22.46,22.46,0,0,1,4.83-2.55,16.41,16.41,0,0,1,6-1,27.71,27.71,0,0,1-2.35,11.68,25.29,25.29,0,0,1-6.58,8.73,29.81,29.81,0,0,1-9.94,5.57,38.23,38.23,0,0,1-12.42,1.95,17,17,0,0,1-11.35-4.3A38.92,38.92,0,0,1,465,384.93a55.45,55.45,0,0,1-5.44-13.23A47.9,47.9,0,0,1,457.67,359.35Z"/><path class="cls-1" d="M520.78,332.09a1.48,1.48,0,0,1,.14-.67,2.11,2.11,0,0,1,.13-.67c.36-.45.9-1,1.61-1.75s1.17-1.08,1.35-1.08h27a42.15,42.15,0,0,0-.4-4.7q-.4-3.21-.74-7.11a67.8,67.8,0,0,1-.2-8.13,30.59,30.59,0,0,1,1.14-7.65,12.92,12.92,0,0,1,3.22-5.64,8.45,8.45,0,0,1,6.25-2.22q0,13.57,1.88,21.76t5,12.62a14.59,14.59,0,0,0,7.19,5.77,22.5,22.5,0,0,0,8.26,1.15,39.18,39.18,0,0,0,8.25-1.28,57,57,0,0,1,7.19-1.48,8.49,8.49,0,0,1,5,.61q1.88,1,1.88,4.77a5.34,5.34,0,0,1-1.28,4c-.85.81-2.49,1.44-4.9,1.88l-3.56.47q-2.49.35-5.57.61l-6.58.6c-2.33.23-4.53.43-6.58.61s-3.95.29-5.64.33-3,.07-3.76.07c0,.45,0,1.21-.14,2.28s-.13,1.79-.13,2.15a35.46,35.46,0,0,0,1.88,11.48q1.88,5.58,4.09,11.08t4.1,11a35.14,35.14,0,0,1,1.88,11.41,13.18,13.18,0,0,1-.2,2.22,5.13,5.13,0,0,1-.81,2A3.81,3.81,0,0,1,576,400a4.58,4.58,0,0,1-3.15-.2A11.76,11.76,0,0,1,565.3,394a35.68,35.68,0,0,1-3.69-10.54,95.6,95.6,0,0,1-1.61-13q-.4-6.86-1.28-12.83A39.4,39.4,0,0,0,556,347.46a8.46,8.46,0,0,0-6-5.17L524,336.39c-.36,0-.9-.38-1.61-1.15a9,9,0,0,1-1.35-1.67,1.53,1.53,0,0,1-.13-.68A1.79,1.79,0,0,1,520.78,332.09Z"/><path class="cls-1" d="M312.13,7.16v175a7,7,0,0,1-7.84,6.93,95.35,95.35,0,0,1,0-188.87A7,7,0,0,1,312.13,7.16Z"/><path class="cls-1" d="M412.57,88.61l-7,7.39H328.38a7,7,0,0,1-7-7V7A7,7,0,0,1,329.16.05,95.38,95.38,0,0,1,412.57,88.61Z"/><path class="cls-1" d="M410.22,116.56A94.47,94.47,0,0,1,398,145.72a7,7,0,0,1-5.9,3.24H328.38a7,7,0,0,1-7-7V114.89a7,7,0,0,1,7-7h75.07A7,7,0,0,1,410.22,116.56Z"/></svg>